<svg width="25" height="16" viewBox="0 0 25 16" fill="none" xmlns="http://www.w3.org/2000/svg">
<g clip-path="url(#clip0_104_150)">
<path d="M22.1056 0H2.16485C1.06355 0 0.170776 0.89543 0.170776 2V14C0.170776 15.1046 1.06355 16 2.16485 16H22.1056C23.2069 16 24.0997 15.1046 24.0997 14V2C24.0997 0.89543 23.2069 0 22.1056 0Z" fill="#016FD0"/>
<path fill-rule="evenodd" clip-rule="evenodd" d="M13.894 13.3938V7.69244L24.0115 7.70155V9.27644L22.8421 10.5298L24.0115 11.7947V13.403H22.1444L21.1522 12.3049L20.167 13.4072L13.894 13.3938Z" fill="#FFFFFE"/>
<path fill-rule="evenodd" clip-rule="evenodd" d="M14.5698 12.7688V8.31989H18.3309V9.34477H15.7876V10.0405H18.2703V11.0483H15.7876V11.7316H18.3309V12.7688H14.5698Z" fill="#016FD0"/>
<path fill-rule="evenodd" clip-rule="evenodd" d="M18.3121 12.7688L20.3933 10.5418L18.312 8.32001H19.9229L21.1946 9.73004L22.4699 8.32001H24.0115V8.35501L21.9747 10.5418L24.0115 12.7057V12.7688H22.4544L21.1601 11.3446L19.8792 12.7688H18.3121Z" fill="#016FD0"/>
<path fill-rule="evenodd" clip-rule="evenodd" d="M14.3659 2.63196H16.8047L17.6613 4.58281V2.63196H20.6722L21.1914 4.09353L21.7124 2.63196H24.0115V8.33335H11.8611L14.3659 2.63196Z" fill="#FFFFFE"/>
<path fill-rule="evenodd" clip-rule="evenodd" d="M14.8277 3.2514L12.8595 7.69658H14.2094L14.5807 6.80641H16.5927L16.9637 7.69658H18.3472L16.3872 3.2514H14.8277ZM14.9968 5.80884L15.587 4.39377L16.1768 5.80884H14.9968Z" fill="#016FD0"/>
<path fill-rule="evenodd" clip-rule="evenodd" d="M18.3287 7.69575V3.25067L20.2262 3.25721L21.2026 5.98994L22.1853 3.25067H24.0115V7.69575L22.8364 7.70619V4.65284L21.7271 7.69575H20.6545L19.5222 4.64241V7.69575H18.3287Z" fill="#016FD0"/>
</g>
<defs>
<clipPath id="clip0_104_150">
<rect width="23.9289" height="16" fill="white" transform="translate(0.170776)"/>
</clipPath>
</defs>
</svg>
