<svg width="25" height="16" viewBox="0 0 25 16" fill="none" xmlns="http://www.w3.org/2000/svg">
<g clip-path="url(#clip0_104_160)">
<path d="M22.0318 15.7499L22.034 15.7499C22.9862 15.7581 23.7675 14.9773 23.7794 14.0042L23.7794 2.0063C23.7756 1.53569 23.5888 1.08617 23.2607 0.756802C22.9333 0.428269 22.4921 0.246149 22.0318 0.250071L2.09445 0.250062C1.63627 0.246149 1.19506 0.428269 0.867737 0.756802C0.539578 1.08617 0.352826 1.53569 0.349007 2.00426L0.348999 13.9937C0.352826 14.4643 0.539578 14.9138 0.867737 15.2432C1.19506 15.5717 1.63627 15.7538 2.09657 15.7499H22.0318ZM22.0308 16.2499C22.0304 16.2499 22.0301 16.2499 22.0297 16.2499L22.0318 16.2499H22.0308Z" fill="white" stroke="black" stroke-opacity="0.2" stroke-width="0.5"/>
<path d="M12.6748 15.9999H22.0318C22.5571 16.0043 23.0625 15.7993 23.437 15.4299C23.8115 15.0605 24.0243 14.557 24.0287 14.0303V11.6716C20.4953 13.7059 16.6633 15.1668 12.6748 15.9999Z" fill="#F27712"/>
<path d="M23.2036 9.29649H22.3537L21.3965 8.03029H21.3058V9.29649H20.6126V6.15167H21.6358C22.4362 6.15167 22.8983 6.4827 22.8983 7.07856C22.8983 7.56684 22.6095 7.88132 22.0896 7.98063L23.2036 9.29649ZM22.1804 7.10339C22.1804 6.79718 21.9494 6.63994 21.5203 6.63994H21.3058V7.59167H21.5038C21.9494 7.59167 22.1804 7.42615 22.1804 7.10339ZM18.1867 6.15167H20.1506V6.68132H18.8799V7.38477H20.1011V7.9227H18.8799V8.77512H20.1506V9.30477H18.1867V6.15167ZM15.9589 9.37925L14.4571 6.14339H15.2163L16.1652 8.26201L17.1223 6.14339H17.8649L16.3467 9.37925H15.9754H15.9589ZM9.67961 9.37098C8.62343 9.37098 7.7983 8.65098 7.7983 7.71581C7.7983 6.80546 8.63994 6.06891 9.69611 6.06891C9.99316 6.06891 10.2407 6.12684 10.546 6.25925V6.98753C10.3148 6.75971 10.0037 6.63194 9.67961 6.63167C9.0195 6.63167 8.51617 7.11167 8.51617 7.71581C8.51617 8.35305 9.01125 8.80822 9.71261 8.80822C10.0262 8.80822 10.2655 8.70891 10.546 8.46063V9.18891C10.2324 9.32132 9.9684 9.37098 9.67961 9.37098ZM7.58377 8.33649C7.58377 8.94891 7.08043 9.37098 6.35431 9.37098C5.82623 9.37098 5.44667 9.18891 5.12486 8.77512L5.57869 8.38615C5.73546 8.66753 5.99951 8.80822 6.32956 8.80822C6.64311 8.80822 6.8659 8.61787 6.8659 8.3696C6.8659 8.22891 6.79989 8.12132 6.65961 8.03856C6.50581 7.96371 6.34565 7.90277 6.18104 7.85649C5.52918 7.6496 5.30639 7.42615 5.30639 6.98753C5.30639 6.47443 5.78497 6.08546 6.41207 6.08546C6.80814 6.08546 7.16295 6.2096 7.45999 6.44132L7.09694 6.85512C6.95304 6.6969 6.74936 6.60677 6.53584 6.60684C6.2388 6.60684 6.02426 6.75581 6.02426 6.95443C6.02426 7.11994 6.14803 7.21098 6.5606 7.35167C7.35273 7.59994 7.58377 7.83167 7.58377 8.34477V8.33649ZM4.17596 6.15167H4.86907V9.30477H4.17596V6.15167ZM1.94809 9.30477H0.924927V6.15167H1.94809C3.07028 6.15167 3.8459 6.79718 3.8459 7.72408C3.8459 8.19581 3.61487 8.6427 3.21055 8.94063C2.86399 9.18891 2.47618 9.30477 1.93984 9.30477H1.94809ZM2.75673 6.93787C2.52569 6.75581 2.26165 6.6896 1.80782 6.6896H1.61804V8.77512H1.80782C2.25339 8.77512 2.53394 8.69236 2.75673 8.52684C2.99602 8.32822 3.13629 8.03029 3.13629 7.72408C3.13629 7.41787 2.99602 7.12822 2.75673 6.93787Z" fill="black"/>
<path d="M12.4768 6.06891C11.5692 6.06891 10.8265 6.79718 10.8265 7.69925C10.8265 8.65925 11.5362 9.37925 12.4768 9.37925C13.401 9.37925 14.1271 8.65098 14.1271 7.72408C14.1271 6.79718 13.4092 6.06891 12.4768 6.06891Z" fill="#F27712"/>
</g>
<defs>
<clipPath id="clip0_104_160">
<rect width="23.9289" height="16" fill="white" transform="translate(0.0997314)"/>
</clipPath>
</defs>
</svg>
