<svg width="25" height="16" viewBox="0 0 25 16" fill="none" xmlns="http://www.w3.org/2000/svg">
<g clip-path="url(#clip0_104_144)">
<path d="M22.1768 0H2.23602C1.13472 0 0.241943 0.89543 0.241943 2V14C0.241943 15.1046 1.13472 16 2.23602 16H22.1768C23.2781 16 24.1709 15.1046 24.1709 14V2C24.1709 0.89543 23.2781 0 22.1768 0Z" fill="#252525"/>
<path d="M9.21529 13C11.9685 13 14.2005 10.7614 14.2005 8C14.2005 5.23858 11.9685 3 9.21529 3C6.46205 3 4.2301 5.23858 4.2301 8C4.2301 10.7614 6.46205 13 9.21529 13Z" fill="#EB001B"/>
<path d="M15.1975 13C17.9507 13 20.1827 10.7614 20.1827 8C20.1827 5.23858 17.9507 3 15.1975 3C12.4442 3 10.2123 5.23858 10.2123 8C10.2123 10.7614 12.4442 13 15.1975 13Z" fill="#F79E1B"/>
<path fill-rule="evenodd" clip-rule="evenodd" d="M12.2064 3.99963C13.4172 4.91184 14.2004 6.36418 14.2004 8C14.2004 9.63582 13.4172 11.0882 12.2064 12.0004C10.9955 11.0882 10.2123 9.63582 10.2123 8C10.2123 6.36418 10.9955 4.91184 12.2064 3.99963Z" fill="#FF5F00"/>
</g>
<defs>
<clipPath id="clip0_104_144">
<rect width="23.9289" height="16" fill="white" transform="translate(0.241943)"/>
</clipPath>
</defs>
</svg>
