<svg width="25" height="16" viewBox="0 0 25 16" fill="none" xmlns="http://www.w3.org/2000/svg">
<path d="M21.9986 0.25H2.55633C1.45503 0.25 0.562256 1.14543 0.562256 2.25V13.75C0.562256 14.8546 1.45503 15.75 2.55633 15.75H21.9986C23.0999 15.75 23.9926 14.8546 23.9926 13.75V2.25C23.9926 1.14543 23.0999 0.25 21.9986 0.25Z" fill="white" stroke="black" stroke-opacity="0.2" stroke-width="0.5"/>
<path d="M3.0925 5.91444C2.5709 5.62751 1.97562 5.39674 1.31006 5.23659L1.33798 5.11188H4.06685C4.43673 5.12489 4.73687 5.23651 4.83453 5.63071L5.42759 8.46659L5.60927 9.32073L7.27032 5.11188H9.06381L6.39782 11.2775H4.60424L3.0925 5.91444ZM10.3831 11.2841H8.68697L9.74784 5.11188H11.4439L10.3831 11.2841ZM16.5316 5.26277L16.301 6.59559L16.1475 6.53004C15.8406 6.40525 15.4355 6.28054 14.8841 6.29371C14.2145 6.29371 13.9141 6.56277 13.9072 6.82546C13.9072 7.11441 14.2705 7.30484 14.8637 7.58725C15.8409 8.02719 16.2942 8.56557 16.2874 9.26819C16.2737 10.5486 15.1151 11.3761 13.3354 11.3761C12.5745 11.3694 11.8416 11.2181 11.4438 11.0476L11.6811 9.66205L11.9044 9.76066C12.4558 9.99071 12.8187 10.089 13.4958 10.089C13.9842 10.089 14.5077 9.89838 14.5144 9.48488C14.5144 9.21565 14.2914 9.01851 13.6352 8.71646C12.9931 8.42087 12.1347 7.92848 12.1487 7.04198C12.1559 5.84042 13.3354 5 15.0103 5C15.6665 5 16.1971 5.13789 16.5316 5.26277ZM18.7859 9.09749H20.1957C20.1259 8.78889 19.8047 7.31147 19.8047 7.31147L19.6862 6.77964C19.6025 7.00943 19.456 7.38373 19.4631 7.37056C19.4631 7.37056 18.9256 8.7429 18.7859 9.09749ZM20.8795 5.11188L22.2479 11.284H20.6774C20.6774 11.284 20.5237 10.5748 20.475 10.3581H18.2974C18.2344 10.5222 17.9414 11.284 17.9414 11.284H16.1617L18.6811 5.62399C18.8556 5.22342 19.163 5.11188 19.5676 5.11188H20.8795Z" fill="#171E6C"/>
</svg>
